<?xml version="1.0" standalone="no"?>
<!DOCTYPE svg PUBLIC "-//W3C//DTD SVG 20010904//EN"
 "http://www.w3.org/TR/2001/REC-SVG-20010904/DTD/svg10.dtd">
<svg version="1.0" xmlns="http://www.w3.org/2000/svg"
 width="1184.000000pt" height="1280.000000pt" viewBox="0 0 1184.000000 1280.000000"
 preserveAspectRatio="xMidYMid meet">
<g transform="translate(0.000000,1280.000000) scale(0.100000,-0.100000)"
fill="#000000" stroke="none">
<path d="M5587 12793 c-3 -5 -50 -150 -106 -323 -56 -173 -108 -334 -117 -357
l-16 -43 -359 0 -359 0 0 -344 0 -344 358 -218 c196 -120 376 -231 400 -246
l42 -29 0 -228 0 -228 -96 -68 c-208 -147 -431 -337 -565 -480 -221 -236 -324
-481 -373 -885 -19 -151 -36 -425 -36 -572 0 -59 -4 -109 -9 -113 -5 -3 -67
38 -138 91 -480 360 -996 570 -1528 624 -155 16 -512 8 -655 -14 -352 -56
-678 -182 -983 -382 -508 -333 -827 -760 -962 -1288 -49 -193 -91 -526 -82
-653 23 -322 100 -612 250 -938 134 -290 267 -506 591 -959 305 -425 478 -700
631 -1002 227 -445 391 -1136 460 -1929 3 -38 12 -200 20 -360 11 -233 18
-304 35 -363 140 -495 743 -825 1820 -996 441 -70 839 -102 1627 -132 453 -17
492 -17 950 0 263 9 577 24 698 32 1722 113 2648 492 2775 1138 12 60 20 163
24 301 28 951 193 1716 511 2370 110 225 186 344 496 776 377 525 492 705 638
998 184 368 279 695 308 1056 6 82 -27 396 -57 547 -106 516 -427 1016 -861
1340 -188 139 -313 210 -521 294 -315 126 -650 181 -1055 171 -241 -6 -358
-20 -563 -71 -378 -94 -785 -296 -1144 -567 -67 -51 -122 -87 -127 -82 -5 5
-14 90 -19 188 -24 407 -26 421 -96 714 -49 205 -75 293 -100 341 -107 206
-420 524 -790 802 l-94 70 0 228 c0 204 2 228 18 242 9 8 185 119 390 247
l372 232 0 345 0 344 -351 2 -352 3 -123 350 c-68 193 -124 356 -124 363 0 9
-72 12 -324 12 -179 0 -327 -3 -329 -7z m-2827 -4438 c456 -77 892 -292 1365
-673 463 -373 821 -864 1027 -1407 145 -381 219 -780 237 -1262 8 -220 9 -225
37 -281 67 -131 224 -192 495 -192 299 0 446 82 478 265 5 33 12 143 15 245
27 931 351 1716 957 2320 453 452 905 756 1343 902 243 81 468 114 721 105
525 -20 953 -182 1240 -471 257 -257 386 -586 410 -1046 9 -151 -4 -273 -46
-430 -122 -459 -543 -1192 -1008 -1755 -187 -225 -574 -613 -693 -693 -117
-80 -311 -145 -529 -178 -143 -21 -571 -30 -796 -15 -481 32 -1118 114 -1945
250 l-178 29 -297 -49 c-559 -93 -1154 -173 -1598 -216 -230 -22 -812 -25
-955 -5 -316 45 -531 130 -682 271 -217 203 -449 454 -651 707 -560 702 -898
1313 -971 1752 -31 189 -30 219 14 517 45 301 62 362 146 529 238 473 659 730
1304 796 125 13 449 4 560 -15z m4320 -6069 c1066 -63 1592 -189 1708 -411 22
-44 20 -131 -6 -181 -53 -103 -169 -154 -402 -174 -95 -9 -219 0 -1290 89
l-1185 99 -400 -34 c-1806 -151 -1977 -163 -2084 -154 -247 22 -373 100 -400
246 -5 28 -5 60 1 81 37 136 309 248 798 328 85 14 169 27 185 30 110 20 1059
88 1365 99 259 9 1463 -4 1710 -18z"/>
<path d="M2235 7855 c-118 -19 -317 -78 -429 -126 -287 -123 -475 -315 -564
-574 -60 -177 -77 -402 -43 -587 58 -322 241 -687 556 -1113 356 -480 736
-840 1085 -1028 77 -42 96 -47 205 -61 316 -40 838 -59 1060 -37 334 32 567
103 687 210 104 92 122 158 108 395 -63 1085 -430 1874 -1137 2442 -291 235
-612 394 -927 460 -155 33 -458 42 -601 19z"/>
<path d="M9081 7859 c-330 -44 -681 -209 -1016 -476 -138 -109 -398 -368 -497
-493 -322 -408 -526 -897 -617 -1480 -36 -225 -45 -332 -45 -525 l-1 -191 35
-58 c97 -162 326 -253 750 -298 252 -27 781 -13 1080 28 98 13 110 18 198 70
125 75 566 449 742 630 578 595 896 1144 926 1599 5 79 0 116 -35 297 -30 158
-48 224 -75 282 -51 111 -128 216 -226 309 -162 154 -353 242 -635 293 -108
19 -474 28 -584 13z"/>
</g>
</svg>
